<svg id="Layer_1" data-name="Layer 1" xmlns="http://www.w3.org/2000/svg" viewBox="0 0 509.76 454.92"><defs><style>.cls-1{fill:#fff;}.cls-2{fill:none;stroke:#fff;stroke-linejoin:round;stroke-width:29px;}.cls-3{fill:#4f4f4f;}</style></defs><title>bell</title><path class="cls-1" d="M291,42.05c17.48,1.54,27.7,46.32,27.7,46.32,130,14.33,51.42,97.16,125.88,250.94a18.53,18.53,0,0,0,14.6,10.33c13.73,1.57,31.18,6.29,31.58,25.36.29,14.28-72.7,20.85-156.35,22.07.06.79.09,1.59.09,2.39C334.5,421.28,315,439,291,439s-43.5-17.68-43.5-39.5c0-.8,0-1.6.09-2.39C163.94,395.85,91,389.28,91.24,375c.4-19.07,17.85-23.79,31.58-25.36a18.53,18.53,0,0,0,14.6-10.33C211.89,185.53,133.28,102.7,263.3,88.37c0,0,10.22-44.78,27.7-46.32m0-29c-.85,0-1.7,0-2.55.11-8.5.75-21,4.66-32.09,19a97.63,97.63,0,0,0-12.54,22.45c-1.09,2.63-2.08,5.23-3,7.73-13.53,2.54-25.12,6.05-35.08,10.63C190,80.23,178,90.11,169.08,103.2c-15.4,22.6-18.17,49.9-21.37,81.5-3.71,36.55-8.29,81.78-34,136.94-10.61,1.76-19.43,4.85-26.85,9.4-15.49,9.5-24.24,24.9-24.62,43.36a34,34,0,0,0,9.8,24.43c9.21,9.54,24.77,16.91,70.81,21.87,21.83,2.35,49.56,4,81.14,4.89a68.53,68.53,0,0,0,16.75,23.27,75.65,75.65,0,0,0,100.5,0A68.53,68.53,0,0,0,358,425.59c31.58-.88,59.31-2.54,81.14-4.89,46-5,61.6-12.33,70.81-21.87a34,34,0,0,0,9.8-24.43c-.38-18.46-9.13-33.86-24.62-43.36-7.42-4.55-16.24-7.64-26.85-9.4-25.7-55.16-30.28-100.39-34-136.94-3.2-31.6-6-58.9-21.37-81.5C404,90.11,392,80.23,376.24,73c-10-4.58-21.55-8.09-35.08-10.63-.89-2.5-1.89-5.1-3-7.73a97.63,97.63,0,0,0-12.54-22.45c-11.12-14.37-23.59-18.28-32.09-19-.85-.08-1.7-.11-2.55-.11Z" transform="translate(-10 -13.05)"/><line class="cls-2" x1="229.1" y1="398.45" x2="332.9" y2="398.45"/><circle class="cls-3" cx="140.5" cy="149.45" r="140.5"/><path class="cls-1" d="M215,236v23H86a42.34,42.34,0,0,1,2.79-16.64,88.25,88.25,0,0,1,15.78-26q10.86-12.78,31.36-29.56,31.82-26.1,43-41.34t11.18-28.83a32,32,0,0,0-10.18-24q-10.2-9.8-26.57-9.79-17.31,0-27.69,10.39T115.17,122l-24.64-2.53q2.53-27.57,19-42T153.91,63q28.1,0,44.48,15.58t16.37,38.61a58.53,58.53,0,0,1-4.79,23q-4.78,11.31-15.91,23.83t-36.95,34.36q-21.57,18.11-27.7,24.56a80,80,0,0,0-10.12,13Z" transform="translate(-10 -13.05)"/></svg>