<svg id="Layer_1" data-name="Layer 1" xmlns="http://www.w3.org/2000/svg" viewBox="0 0 271 284"><defs><style>.cls-1{fill:#fff;}.cls-2{fill:none;}</style></defs><title>calendar</title><rect class="cls-1" x="38" y="84" width="56.62" height="43.88" rx="10.18" ry="10.18"/><rect class="cls-1" x="38" y="140.06" width="56.62" height="43.88" rx="10.18" ry="10.18"/><rect class="cls-1" x="38" y="196.12" width="56.62" height="43.88" rx="10.18" ry="10.18"/><rect class="cls-1" x="107.5" y="84" width="56.62" height="43.88" rx="10.18" ry="10.18"/><rect class="cls-1" x="107.5" y="140.06" width="56.62" height="43.88" rx="10.18" ry="10.18"/><rect class="cls-1" x="107.5" y="196.12" width="56.62" height="43.88" rx="10.18" ry="10.18"/><rect class="cls-1" x="177" y="84" width="56.62" height="43.88" rx="10.18" ry="10.18"/><rect class="cls-1" x="177" y="140.06" width="56.62" height="43.88" rx="10.18" ry="10.18"/><rect class="cls-1" x="177" y="196.12" width="56.62" height="43.88" rx="10.18" ry="10.18"/><rect class="cls-2" x="27" y="69" width="218" height="182" rx="17.28" ry="17.28"/><path class="cls-1" d="M253,17H235.21A12.91,12.91,0,0,1,238,25v5a13,13,0,0,1-26,0V25a12.91,12.91,0,0,1,2.79-8H85.21A12.91,12.91,0,0,1,88,25v5a13,13,0,0,1-26,0V25a12.91,12.91,0,0,1,2.79-8H32A25,25,0,0,0,7,42V263a25,25,0,0,0,25,25H253a25,25,0,0,0,25-25V42A25,25,0,0,0,253,17Zm-1,220.72A17.32,17.32,0,0,1,234.72,255H51.28A17.32,17.32,0,0,1,34,237.72V90.28A17.32,17.32,0,0,1,51.28,73H234.72A17.32,17.32,0,0,1,252,90.28Z" transform="translate(-7 -4)"/><rect class="cls-1" x="72" width="8" height="26" rx="2.07" ry="2.07"/><rect class="cls-1" x="221" width="8" height="26" rx="2.07" ry="2.07"/></svg>