<svg id="Layer_1" data-name="Layer 1" xmlns="http://www.w3.org/2000/svg" viewBox="0 0 945 531.65"><defs><style>.cls-1{font-size:211.62px;}.cls-1,.cls-13,.cls-7,.cls-8{font-family:Noteworthy-Light, Noteworthy;}.cls-2{letter-spacing:0.03em;}.cls-3{letter-spacing:-0.04em;}.cls-4{letter-spacing:-0.05em;}.cls-5{letter-spacing:-0.05em;}.cls-6{opacity:0.21;}.cls-7{font-size:227.89px;}.cls-17,.cls-7{fill:#612c19;}.cls-8{font-size:142.43px;}.cls-9{letter-spacing:-0.01em;}.cls-10{letter-spacing:0.03em;}.cls-11{letter-spacing:-0.06em;}.cls-12{letter-spacing:-0.02em;}.cls-13{font-size:122.09px;}.cls-14{letter-spacing:-0.05em;}.cls-15{letter-spacing:-0.04em;}.cls-16{letter-spacing:0.01em;}.cls-17,.cls-18{stroke:#612c19;stroke-miterlimit:10;stroke-width:12.47px;}.cls-17{stroke-linecap:round;}.cls-18{fill:#f6c10e;}</style></defs><title>hsblogo</title><text class="cls-1" transform="translate(390.39 440.4)"><tspan class="cls-2">b</tspan><tspan class="cls-3" x="96.81" y="0">i</tspan><tspan class="cls-4" x="125.64" y="0">s</tspan><tspan x="208.7" y="0">t</tspan><tspan class="cls-5" x="280.65" y="0">r</tspan><tspan x="342.02" y="0">o</tspan></text><g class="cls-6"><text class="cls-7" transform="translate(364.12 295.57)">&amp;</text></g><text class="cls-8" transform="translate(312.24 133)">h<tspan class="cls-9" x="58.22" y="0">e</tspan><tspan class="cls-10" x="116.97" y="0">a</tspan><tspan class="cls-11" x="184.98" y="0">r</tspan><tspan class="cls-12" x="224.86" y="0">t</tspan><tspan x="270.44" y="0">h</tspan></text><text class="cls-13" transform="translate(460.83 249.93)"><tspan class="cls-14">s</tspan><tspan class="cls-15" x="47.92" y="0">t</tspan><tspan x="84.55" y="0">o</tspan><tspan class="cls-16" x="140.55" y="0">n</tspan><tspan x="197.32" y="0">e</tspan></text><rect class="cls-17" x="130.22" y="69.07" width="12.47" height="403.33" rx="1.53" ry="1.53" transform="translate(43.83 62.94) rotate(-18.58)"/><ellipse class="cls-18" cx="112.92" cy="124.95" rx="13.79" ry="52.53" transform="translate(120.83 7.34) rotate(-1)"/><ellipse class="cls-18" cx="86.48" cy="72.43" rx="13.79" ry="52.53" transform="matrix(1, -0.02, 0.02, 1, 121.74, 6.87)"/><ellipse class="cls-18" cx="74.93" cy="181.59" rx="13.79" ry="52.53" transform="translate(19.16 105.5) rotate(-43.09)"/><ellipse class="cls-18" cx="56.38" cy="126.42" rx="13.79" ry="52.53" transform="translate(51.85 77.95) rotate(-43.09)"/><ellipse class="cls-18" cx="45.71" cy="68.59" rx="13.79" ry="52.53" transform="translate(93.95 39.23) rotate(-31.42)"/><ellipse class="cls-18" cx="94.81" cy="240.71" rx="13.79" ry="52.53" transform="translate(-15.86 135.02) rotate(-43.09)"/><ellipse class="cls-18" cx="126.55" cy="309" rx="13.79" ry="52.53" transform="translate(-53.96 175.12) rotate(-43.09)"/><ellipse class="cls-18" cx="139.42" cy="203.78" rx="13.79" ry="52.53" transform="translate(119.45 7.81) rotate(-1)"/><ellipse class="cls-18" cx="164.6" cy="278.66" rx="13.79" ry="52.53" transform="translate(118.14 8.27) rotate(-1)"/><ellipse class="cls-18" cx="189.78" cy="353.54" rx="13.79" ry="52.53" transform="matrix(1, -0.02, 0.02, 1, 116.83, 8.72)"/></svg>