<svg xmlns="http://www.w3.org/2000/svg" viewBox="0 0 150 96"><defs><style>.cls-1{fill:#fff;}</style></defs><title>landinglogofivevines</title><g id="Layer_1" data-name="Layer 1"><rect class="cls-1" width="150" height="96"/></g><g id="Layer_2" data-name="Layer 2"><path d="M27.33,39.14c0,.31-.12.46-.34.46s-.37-.28-.46-.84a5.84,5.84,0,0,0-1.62-3.51,4.37,4.37,0,0,0-2.44-.87c-.39,0-1.28-.06-2.64-.06-1,0-2.22,0-3.63.1v9.7c2.82,0,4.55-.16,5.22-.54s1-1.47,1.18-3.25c0-.51.18-.76.4-.76s.33.16.33.49a3.43,3.43,0,0,1,0,.5c-.07,1.52-.1,2.93-.1,4.22,0,1.68,0,3,.1,4a1.85,1.85,0,0,1,0,.39c0,.27-.11.4-.33.4a.32.32,0,0,1-.33-.2c0-.13-.12-.64-.23-1.52a3.49,3.49,0,0,0-1-2.51,6.42,6.42,0,0,0-3.08-.49q-1.21,0-2.13.06v9.84A1.14,1.14,0,0,0,17,55.94a5.44,5.44,0,0,0,1.6.1c.35,0,.52.09.52.27s-.22.29-.66.29H10.88c-.42,0-.62-.08-.62-.26s.38-.29,1.13-.33,1.21-.15,1.34-.32a3.33,3.33,0,0,0,.2-1.54v-19c0-.4-.14-.65-.35-.75a5.88,5.88,0,0,0-1.72-.18q-.54,0-.54-.33t.6-.3h9a62.78,62.78,0,0,0,6.84-.2c0,.29.08,1.12.19,2.48.07.92.16,1.75.27,2.48A6.36,6.36,0,0,1,27.33,39.14Z"/><path d="M34.49,56.37c0,.13-.1.2-.3.2H28.65c-.38,0-.57-.06-.57-.17s.25-.24.73-.26c.66,0,1-.12,1-.23a10.52,10.52,0,0,0,0-1.43V43.77a8,8,0,0,0-.07-1.51c0-.14-.21-.23-.49-.25h-1c-.2,0-.3-.08-.3-.23s.14-.23.43-.23h5.45c.35,0,.53.09.53.26s-.38.21-1.13.23c-.3,0-.49.05-.56.15a2.41,2.41,0,0,0-.1.91V55.55a.42.42,0,0,0,.25.43,5.43,5.43,0,0,0,1.17.16C34.36,56.16,34.49,56.24,34.49,56.37Z"/><path d="M50.8,41.72c0,.21-.19.29-.56.24a3.13,3.13,0,0,0-1.26.22,1.52,1.52,0,0,0-.56.8l-.2.55Q46.38,48.22,43.54,56c-.18.55-.36.83-.53.83s-.35-.25-.53-.76q-1.32-3.63-3.85-10.18c-.22-.57-.55-1.42-1-2.57a2.4,2.4,0,0,0-.68-1.2,4.15,4.15,0,0,0-1.6-.18c-.24,0-.36-.07-.36-.2s.15-.3.46-.3h6.44c.57,0,.86.09.86.27s-.17.25-.5.29H41.06q-1,0-1,.27T41.75,47c0,.08.73,1.92,2,5.49l1.41-3.61,1.36-3.64a14.78,14.78,0,0,0,1-2.83c0-.22-.19-.34-.56-.37H45.68c-.17,0-.26-.06-.26-.2s.32-.36,1-.36H48a7.2,7.2,0,0,0,.73.1,3.2,3.2,0,0,0,.62-.1h1C50.63,41.48,50.8,41.56,50.8,41.72Z"/><path d="M63.61,53s0,.16,0,.42a6.21,6.21,0,0,0-.05.69V56a2.35,2.35,0,0,0,.1.66l-5.51-.1-6.31.1c-.46,0-.69-.08-.69-.26s.13-.3.39-.3A2.73,2.73,0,0,0,52.73,56c.12-.1.18-.45.18-1.07V43.56c0-.9-.08-1.38-.23-1.43A4.25,4.25,0,0,0,51.53,42c-.27,0-.4-.07-.4-.23s.14-.26.43-.26H62.85v.23l0,.48c0,.33.13,1.31.27,2.93a2.21,2.21,0,0,1,0,.39c0,.28-.08.43-.23.43s-.34-.22-.43-.66q-.45-2.52-1.74-2.94a14.54,14.54,0,0,0-3.42-.23H55.69v6.17h.78A5.68,5.68,0,0,0,59.06,48c.33-.23.54-.86.65-1.9.07-.61.2-.92.4-.92s.33.22.33.66c0,.26,0,.67,0,1.22s0,1,0,1.26c0,1.43,0,2.41.07,2.94a3.89,3.89,0,0,1,0,.42c0,.36-.11.53-.33.53s-.32-.27-.39-.82c-.13-1.19-.34-1.9-.65-2.13a5.46,5.46,0,0,0-2.57-.35h-.81V56a37.78,37.78,0,0,0,5.68-.26c.88-.24,1.39-1.3,1.55-3.17,0-.33.14-.5.36-.5S63.61,52.42,63.61,53Z"/><path d="M91.84,33.82q0,.27-.63.3a3.48,3.48,0,0,0-1.95.43,4.54,4.54,0,0,0-1,1.86l-1.12,3.08Q83.06,50.64,81.4,56.6c-.06.27-.17.4-.32.4s-.54-.82-1.1-2.48q-1.49-4.52-2.31-6.8-.89-2.51-2.61-7.5l-1.61-4.45a2.72,2.72,0,0,0-.73-1.24,2.25,2.25,0,0,0-1.32-.34c-.73,0-1.16,0-1.3-.07a.23.23,0,0,1-.22-.26q0-.3.66-.3h.3l2.06,0,2.1,0,1.27,0c.74,0,1.79,0,3.15,0h.47c.39,0,.59.1.59.3s-.4.34-1.19.36l-2,.07c-.46,0-.7.17-.7.45a1.27,1.27,0,0,0,.06.28l.23.9q.06.26,3.23,9.3l2,5.93q5.48-15.45,5.47-16.24c0-.5-.54-.74-1.62-.69h-1c-.27,0-.4-.1-.4-.29s.33-.37,1-.37h1.13c.61.06,1.06.1,1.35.1h1.06l2.17-.1C91.64,33.56,91.84,33.65,91.84,33.82Z"/><path d="M98.31,56.37c0,.13-.1.2-.3.2H92.47c-.38,0-.57-.06-.57-.17s.25-.24.73-.26c.66,0,1-.12,1-.23a10.52,10.52,0,0,0,0-1.43V43.77a8,8,0,0,0-.07-1.51c0-.14-.21-.23-.49-.25h-1c-.2,0-.3-.08-.3-.23s.14-.23.43-.23h5.45c.35,0,.53.09.53.26s-.38.21-1.13.23c-.31,0-.49.05-.56.15a2.41,2.41,0,0,0-.1.91V55.55a.42.42,0,0,0,.25.43,5.43,5.43,0,0,0,1.17.16C98.18,56.16,98.31,56.24,98.31,56.37Z"/><path d="M114.29,41.78c0,.15-.24.23-.73.23h-.82c-.2,0-.32.05-.35.13a4.48,4.48,0,0,0,0,.9V55.21c0,.8,0,1.26,0,1.39s-.12.2-.3.2-1-.92-2.35-2.77q-.22-.36-.72-1c0-.07-.16-.23-.36-.5q-1.65-2.19-6-8.23V54.78c0,.82.12,1.25.35,1.3a8.76,8.76,0,0,0,1.27.06h.13c.27,0,.4.07.4.22s-.24.24-.73.24l-1.09-.06c-.33,0-.63,0-.89,0s-.44,0-.66,0q-.63.06-1.35.06c-.36,0-.53-.08-.53-.24s.21-.22.63-.22h.29l.43,0c.53,0,.8-.14.83-.3a7.91,7.91,0,0,0,0-1V45.7a8.19,8.19,0,0,0-.3-3A1.66,1.66,0,0,0,99.86,42c-.55,0-.82-.09-.82-.27s.14-.22.42-.22h4.2l7.79,10.73V43.1a3.26,3.26,0,0,0-.07-1c0-.08-.22-.13-.52-.13H110c-.41,0-.62-.08-.62-.25s.1-.16.31-.18.95,0,2.23,0,1.91,0,2.11,0S114.29,41.66,114.29,41.78Z"/><path d="M128,53s0,.16-.05.42a6.21,6.21,0,0,0,0,.69V56a2.79,2.79,0,0,0,.1.66l-5.51-.1-6.3.1c-.47,0-.7-.08-.7-.26s.13-.3.4-.3a2.71,2.71,0,0,0,1.23-.15c.12-.1.19-.45.19-1.07V43.56c0-.9-.08-1.38-.24-1.43a4.25,4.25,0,0,0-1.15-.09c-.26,0-.4-.07-.4-.23s.15-.26.43-.26h11.29v.23l0,.48c0,.33.13,1.31.26,2.93a2.21,2.21,0,0,1,0,.39c0,.28-.07.43-.23.43s-.34-.22-.42-.66c-.31-1.68-.89-2.66-1.75-2.94a14.5,14.5,0,0,0-3.41-.23H120.1v6.17h.79a5.66,5.66,0,0,0,2.58-.35c.33-.23.55-.86.66-1.9.06-.61.2-.92.39-.92s.33.22.33.66c0,.26,0,.67,0,1.22s0,1,0,1.26c0,1.43,0,2.41.08,2.94a3.49,3.49,0,0,1,0,.42c0,.36-.1.53-.32.53s-.33-.27-.39-.82c-.13-1.19-.35-1.9-.65-2.13a5.54,5.54,0,0,0-2.58-.35h-.81V56a38,38,0,0,0,5.69-.26c.87-.24,1.39-1.3,1.54-3.17,0-.33.14-.5.36-.5S128,52.42,128,53Z"/><path d="M139.74,52.33a4,4,0,0,1-1.58,3.16,5.83,5.83,0,0,1-3.83,1.31,7,7,0,0,1-3.47-1,.9.9,0,0,0-.26-.07c-.13,0-.21.11-.23.31a3.63,3.63,0,0,1-.1.55.32.32,0,0,1-.33.23.29.29,0,0,1-.33-.33s0-.37.06-1,.07-1.14.07-1.58V52.21c0-.41.11-.62.33-.62s.39.34.5,1q.62,3.63,3.89,3.63a2.44,2.44,0,0,0,2.77-2.76,2.88,2.88,0,0,0-.66-2A8.46,8.46,0,0,0,134,49.8a13.25,13.25,0,0,1-3.2-2,3.33,3.33,0,0,1-.89-2.37,3.8,3.8,0,0,1,1.32-3,4.88,4.88,0,0,1,3.33-1.16,5.61,5.61,0,0,1,2.67.76.65.65,0,0,0,.27.1q.23,0,.3-.48t.39-.48a.29.29,0,0,1,.33.33,2.23,2.23,0,0,1,0,.26,12.31,12.31,0,0,0-.07,1.36c0,.33,0,.92.1,1.78a1.36,1.36,0,0,1,0,.3q0,.39-.27.39c-.2,0-.34-.19-.43-.59a4.28,4.28,0,0,0-1.2-2.3,3,3,0,0,0-2.13-.87c-1.59,0-2.38.84-2.38,2.53a2.69,2.69,0,0,0,.63,1.84,3,3,0,0,0,.72.63c.27.15,1,.53,2.32,1.15a10.27,10.27,0,0,1,3,2A3.23,3.23,0,0,1,139.74,52.33Z"/></g></svg>