<svg xmlns="http://www.w3.org/2000/svg" viewBox="0 0 150 96"><defs><style>.cls-1{fill:#fff;}.cls-2{font-size:32.52px;}.cls-14,.cls-2,.cls-8,.cls-9{font-family:Noteworthy-Light, Noteworthy;}.cls-3{letter-spacing:0.03em;}.cls-4{letter-spacing:-0.04em;}.cls-5{letter-spacing:-0.05em;}.cls-6{letter-spacing:-0.05em;}.cls-7{opacity:0.21;}.cls-8{font-size:35.03px;}.cls-18,.cls-8{fill:#612c19;}.cls-9{font-size:21.89px;}.cls-10{letter-spacing:-0.01em;}.cls-11{letter-spacing:0.03em;}.cls-12{letter-spacing:-0.06em;}.cls-13{letter-spacing:-0.02em;}.cls-14{font-size:18.76px;}.cls-15{letter-spacing:-0.05em;}.cls-16{letter-spacing:-0.04em;}.cls-17{letter-spacing:0.01em;}.cls-18,.cls-19{stroke:#612c19;stroke-miterlimit:10;stroke-width:1.92px;}.cls-18{stroke-linecap:round;}.cls-19{fill:#f6c10e;}</style></defs><title>landinglogo-h&amp;amp;sb</title><g id="Layer_1" data-name="Layer 1"><rect class="cls-1" width="150" height="96"/></g><g id="Layer_3" data-name="Layer 3"><text class="cls-2" transform="translate(62.38 75.88)"><tspan class="cls-3">b</tspan><tspan class="cls-4" x="14.88" y="0">i</tspan><tspan class="cls-5" x="19.31" y="0">s</tspan><tspan x="32.08" y="0">t</tspan><tspan class="cls-6" x="43.13" y="0">r</tspan><tspan x="52.57" y="0">o</tspan></text><g class="cls-7"><text class="cls-8" transform="translate(58.34 53.62)">&amp;</text></g><text class="cls-9" transform="translate(50.37 28.63)">h<tspan class="cls-10" x="8.95" y="0">e</tspan><tspan class="cls-11" x="17.98" y="0">a</tspan><tspan class="cls-12" x="28.43" y="0">r</tspan><tspan class="cls-13" x="34.56" y="0">t</tspan><tspan x="41.57" y="0">h</tspan></text><text class="cls-14" transform="translate(73.21 46.61)"><tspan class="cls-15">s</tspan><tspan class="cls-16" x="7.36" y="0">t</tspan><tspan x="12.99" y="0">o</tspan><tspan class="cls-17" x="21.6" y="0">n</tspan><tspan x="30.33" y="0">e</tspan></text><rect class="cls-18" x="41.3" y="19.63" width="1.92" height="61.99" rx="0.24" ry="0.24" transform="translate(-13.93 16.11) rotate(-18.58)"/><ellipse class="cls-19" cx="38.64" cy="28.22" rx="2.12" ry="8.07" transform="matrix(1, -0.02, 0.02, 1, -0.49, 0.68)"/><ellipse class="cls-19" cx="34.58" cy="20.15" rx="2.12" ry="8.07" transform="translate(-0.35 0.61) rotate(-1)"/><ellipse class="cls-19" cx="32.8" cy="36.92" rx="2.12" ry="8.07" transform="translate(-16.38 32.36) rotate(-43.09)"/><ellipse class="cls-19" cx="29.95" cy="28.44" rx="2.12" ry="8.07" transform="translate(-11.35 28.13) rotate(-43.09)"/><ellipse class="cls-19" cx="28.31" cy="19.56" rx="2.12" ry="8.07" transform="translate(-6.04 17.63) rotate(-31.42)"/><ellipse class="cls-19" cx="35.86" cy="46.01" rx="2.12" ry="8.07" transform="translate(-21.76 36.9) rotate(-43.09)"/><ellipse class="cls-19" cx="40.73" cy="56.51" rx="2.12" ry="8.07" transform="translate(-27.61 43.06) rotate(-43.09)"/><ellipse class="cls-19" cx="42.71" cy="40.33" rx="2.12" ry="8.07" transform="translate(-0.7 0.76) rotate(-1)"/><ellipse class="cls-19" cx="46.58" cy="51.84" rx="2.12" ry="8.07" transform="translate(-0.9 0.82) rotate(-1)"/><ellipse class="cls-19" cx="50.45" cy="63.35" rx="2.12" ry="8.07" transform="translate(-1.1 0.89) rotate(-1)"/></g></svg>