<svg id="Layer_1" data-name="Layer 1" xmlns="http://www.w3.org/2000/svg" viewBox="0 0 150 96"><defs><style>.cls-1{fill:#fff;}</style></defs><title>landinglogo-crispys</title><rect class="cls-1" width="150" height="96"/><path d="M17.49,62.73c-2.61,0-4.49-1.41-4.49-5.12v-20c0-3.72,1.88-5.26,4.49-5.26,3.67,0,4.74,1.8,4.74,6a20.9,20.9,0,0,1-.17,2.44l-.86,0a16.35,16.35,0,0,0,.18-2.35c0-3.81-.94-5.26-3.94-5.26-1.83,0-3.59,1.24-3.59,4.27V57.82c0,3,1.76,4.15,3.59,4.15,2.78,0,3.89-1.8,3.89-5.13,0-.6-.13-2.18-.21-2.74l.9,0c.08.47.17,2.14.17,2.82C22.19,60.55,20.78,62.73,17.49,62.73Z"/><path d="M36.67,48.29c3,.56,3.85,2.27,3.85,8.25a46.75,46.75,0,0,0,.17,5.55h-.94c-.09-1-.13-2.94-.13-5.59,0-1.29-.09-2.61-.17-3.55-.3-3.42-2.52-4.19-4.15-4.19H32.44V62.09h-.85V33h4.23c2.52,0,5,.3,5,7.27C40.86,45.9,39,47.86,36.67,48.29Zm-1-14.49H32.44V48h1.92C37.18,48,40,46.84,40,40.21,40,33.8,37.83,33.8,35.65,33.8Z"/><path d="M51.84,62.14H51V33h.85Z"/><path d="M70.43,40.3l-.86-.09a14.26,14.26,0,0,0,.17-2.43c0-2.78-.55-4.74-3.37-4.74-1.75,0-3.46,1-3.46,4.35v1.54c0,2.35,1.28,4.53,3.07,7.1s4.32,6.11,4.32,9.48v1.8c0,3.46-1.71,5.3-4.7,5.3-2.27,0-4.15-1.54-4.15-5.6a18.49,18.49,0,0,1,.18-2.91l.81.09a15.34,15.34,0,0,0-.22,2.69c0,3.89,1.5,5,3.34,5,2.43,0,3.93-1.67,3.93-4.49V55.73c0-3.25-2-6.16-4.23-9.32C63.55,44,62.05,41.92,62.05,39V37.61c0-4.19,1.93-5.34,4.36-5.34,3.59,0,4.19,2.82,4.19,5.51A17.12,17.12,0,0,1,70.43,40.3Z"/><path d="M84.83,50.3H81.2V62.09h-.86V33H85c2.52,0,4.61,1.41,4.61,8.38C89.61,48.76,87,50.3,84.83,50.3Zm0-16.5H81.2V49.49h3.41c2,0,4.15-1.54,4.15-8.16C88.76,34.92,87,33.8,84.83,33.8Z"/><path d="M107.43,33,103,52.35v9.74h-.86v-9.7L97.73,33h.85l4,18.38,4-18.38Z"/><path d="M118.54,34.4h-1.41V33h1.41Z"/><path d="M136.83,40.3l-.86-.09a14.26,14.26,0,0,0,.17-2.43c0-2.78-.55-4.74-3.37-4.74-1.75,0-3.46,1-3.46,4.35v1.54c0,2.35,1.28,4.53,3.07,7.1s4.32,6.11,4.32,9.48v1.8c0,3.46-1.71,5.3-4.7,5.3-2.27,0-4.15-1.54-4.15-5.6A18.49,18.49,0,0,1,128,54.1l.81.09a15.34,15.34,0,0,0-.22,2.69c0,3.89,1.5,5,3.34,5,2.43,0,3.93-1.67,3.93-4.49V55.73c0-3.25-2-6.16-4.23-9.32C130,44,128.45,41.92,128.45,39V37.61c0-4.19,1.93-5.34,4.36-5.34,3.59,0,4.19,2.82,4.19,5.51A17.12,17.12,0,0,1,136.83,40.3Z"/></svg>