<svg id="Layer_1" data-name="Layer 1" xmlns="http://www.w3.org/2000/svg" viewBox="0 0 414 638.76"><defs><style>.cls-1{fill:#fff;}</style></defs><title>menu</title><path class="cls-1" d="M27.82,96H331.34a16.07,16.07,0,0,0,16-14.59L353,20.58a10.35,10.35,0,0,0-15.46-9.93C303.69,30.27,215.36,70.05,27.67,93.43A1.29,1.29,0,0,0,27.82,96Z" transform="translate(-14 -9.24)"/><path class="cls-1" d="M404.43,112H37.57A23.64,23.64,0,0,0,14,135.57V624.43A23.64,23.64,0,0,0,37.57,648H404.43A23.64,23.64,0,0,0,428,624.43V135.57A23.64,23.64,0,0,0,404.43,112ZM155,360.52l9.76,238a8.78,8.78,0,0,1-8.77,9.14H140.33a8.77,8.77,0,0,1-8.77-9l6-238.83c-29.18-6.29-51.39-38.07-51.39-76.34,0-42.8,27.76-97.5,62-97.5s62,54.7,62,97.5C210.17,323.4,186,356.25,155,360.52ZM328,601s-24,15-35,0,6.76-209.85,6.76-209.85-56.4-150.23,21.08-201a4.64,4.64,0,0,1,7.16,3.89Z" transform="translate(-14 -9.24)"/></svg>